<svg xmlns="http://www.w3.org/2000/svg" width="49.53" height="39.623" viewBox="0 0 49.53 39.623">
  <path id="comments-regular" d="M6.805,23.921a3.715,3.715,0,0,0-.58-4.318A8.647,8.647,0,0,1,3.694,13.62c0-4.914,4.937-9.906,12.382-9.906S28.458,8.706,28.458,13.62s-4.937,9.906-12.382,9.906a15.566,15.566,0,0,1-2.925-.279,3.71,3.71,0,0,0-2.376.325q-.476.244-.975.464A25.254,25.254,0,0,1,5.939,25.43c.217-.356.418-.7.611-1.052.085-.147.17-.3.248-.457ZM-.02,13.62a12.344,12.344,0,0,0,3.552,8.536c-.07.132-.147.271-.217.395A21.489,21.489,0,0,1,.483,26.583a1.86,1.86,0,0,0,1.354,3.134,23.688,23.688,0,0,0,9.5-2.3c.371-.17.743-.348,1.1-.526a18.724,18.724,0,0,0,3.645.348c8.892,0,16.1-6.1,16.1-13.62S24.968,0,16.076,0-.02,6.1-.02,13.62ZM33.411,37.146a19.406,19.406,0,0,0,3.645-.348c.356.178.727.356,1.1.526a23.688,23.688,0,0,0,9.5,2.3A1.853,1.853,0,0,0,49,36.5a22.229,22.229,0,0,1-2.832-4.032c-.07-.132-.147-.263-.217-.395a12.35,12.35,0,0,0,3.56-8.544c0-7.305-6.8-13.272-15.338-13.6a14.174,14.174,0,0,1,.48,3.7v.046c6.748.518,11.144,5.224,11.144,9.859A8.615,8.615,0,0,1,43.263,29.5a3.716,3.716,0,0,0-.58,4.318c.085.155.17.31.248.457.193.348.4.7.611,1.052a24.458,24.458,0,0,1-3.862-1.393q-.5-.221-.975-.464a3.71,3.71,0,0,0-2.376-.325,15.005,15.005,0,0,1-2.925.279A12.993,12.993,0,0,1,22.817,28.6a21.351,21.351,0,0,1-3.869.913C21.571,34.035,27.065,37.146,33.411,37.146Z" transform="translate(0.022)" fill="#fdb933"/>
</svg>
