<svg xmlns="http://www.w3.org/2000/svg" width="52.103" height="31.259" viewBox="0 0 52.103 31.259">
  <path id="handshake-simple-solid" d="M26.328,65.726l-7.881,6.383a3.164,3.164,0,0,0,3.932,4.958l8.084-6.285a1.305,1.305,0,1,1,1.6,2.06l-1.7,1.319L44.792,87.446h3.4A3.909,3.909,0,0,0,52.1,83.539V73.118A3.909,3.909,0,0,0,48.2,69.21h-6.57l-.318-.2L35.4,65.221a7.777,7.777,0,0,0-9.069.5Zm1.856,10.128-4.209,3.273A5.769,5.769,0,0,1,16.8,70.09l6.773-5.479a7.771,7.771,0,0,0-7.294.692L10.421,69.21H3.908A3.909,3.909,0,0,0,0,73.118V83.539a3.909,3.909,0,0,0,3.908,3.908h8.809l7.441,6.79a3.9,3.9,0,0,0,5.52-.252,3.982,3.982,0,0,0,.9-1.677l1.384,1.27A3.905,3.905,0,0,0,34.29,92a3.911,3.911,0,0,0,4.82-6.13L28.184,75.853Z" transform="translate(0 -64)" fill="#fdb933"/>
</svg>
