<svg xmlns="http://www.w3.org/2000/svg" width="48.749" height="38.999" viewBox="0 0 48.749 38.999">
  <path id="laptop-file-solid" d="M9.75,0A4.879,4.879,0,0,0,4.875,4.875V21.937H1.462A1.463,1.463,0,0,0,0,23.4a5.851,5.851,0,0,0,5.85,5.85H24.374V21.937H9.75V4.875H34.124V7.312H39V4.875A4.879,4.879,0,0,0,34.124,0ZM39,9.75H30.468a3.657,3.657,0,0,0-3.656,3.656V35.343A3.657,3.657,0,0,0,30.468,39H45.093a3.657,3.657,0,0,0,3.656-3.656V19.5H41.436A2.435,2.435,0,0,1,39,17.062Zm2.437,0v7.312h7.312Z" fill="#fdb933"/>
</svg>
