<svg xmlns="http://www.w3.org/2000/svg" width="24.276" height="18" viewBox="0 0 24.276 18">
  <path id="Pfad_94" data-name="Pfad 94" d="M128.069,113.891a10.452,10.452,0,0,1,1.2-5,14.2,14.2,0,0,1,2.889-3.8,21.583,21.583,0,0,1,3.7-2.839q1.91-1.146,3.2-1.777l1,2.092q-1.494.8-2.823,1.544a14.15,14.15,0,0,0-2.391,1.677,10.3,10.3,0,0,0-1.86,2.059,9.478,9.478,0,0,0-1.262,2.823h1.428a3.84,3.84,0,0,1,3.005,1.03,3.371,3.371,0,0,1,.913,2.292,4.634,4.634,0,0,1-1.229,3.039,4.817,4.817,0,0,1-6.692.183A4.933,4.933,0,0,1,128.069,113.891Zm12.288,0a10.452,10.452,0,0,1,1.2-5,14.2,14.2,0,0,1,2.889-3.8,21.583,21.583,0,0,1,3.7-2.839q1.91-1.146,3.2-1.777l1,2.092q-1.494.8-2.823,1.544a14.15,14.15,0,0,0-2.391,1.677,10.3,10.3,0,0,0-1.86,2.059,9.477,9.477,0,0,0-1.262,2.823h1.428a3.84,3.84,0,0,1,3.005,1.03,3.371,3.371,0,0,1,.913,2.292,4.634,4.634,0,0,1-1.229,3.039,4.817,4.817,0,0,1-6.692.183A4.933,4.933,0,0,1,140.357,113.891Z" transform="translate(-128.069 -100.474)" fill="#fdb933"/>
</svg>
